<?xml version="1.0" standalone="no"?>
<!DOCTYPE svg PUBLIC "-//W3C//DTD SVG 20010904//EN"
 "http://www.w3.org/TR/2001/REC-SVG-20010904/DTD/svg10.dtd">
<svg version="1.0" xmlns="http://www.w3.org/2000/svg"
 width="348.000000pt" height="348.000000pt" viewBox="0 0 348.000000 348.000000"
 preserveAspectRatio="xMidYMid meet">

<g transform="translate(0.000000,348.000000) scale(0.100000,-0.100000)"
fill="#000000" stroke="none">
<path d="M2808 3403 c-54 -67 -128 -130 -168 -143 -40 -13 -79 -9 -141 15 -10
4 -32 -7 -59 -30 -94 -78 -168 -96 -235 -56 -20 11 -45 21 -55 21 -21 0 -72
-60 -113 -132 -37 -65 -90 -105 -171 -130 -66 -20 -71 -20 -122 -4 -146 46
-199 28 -233 -80 -33 -101 -85 -197 -127 -233 -34 -30 -42 -33 -81 -27 -54 7
-136 42 -158 66 -27 30 -14 61 42 104 54 40 61 53 43 87 -8 13 -21 19 -46 19
-41 0 -89 22 -98 45 -3 9 -6 31 -6 49 0 36 -26 79 -45 74 -23 -5 -94 -100
-137 -183 -58 -112 -73 -125 -148 -125 -52 0 -60 -3 -60 -19 0 -26 21 -81 31
-81 4 0 24 -16 44 -35 32 -33 35 -40 35 -97 0 -53 4 -66 27 -90 l27 -28 -24
-25 c-28 -30 -55 -32 -95 -5 -16 11 -33 20 -36 20 -3 0 -15 -17 -27 -37 -30
-54 -90 -109 -135 -123 -61 -19 -128 0 -223 65 -20 14 -40 25 -44 25 -18 0
-17 -31 2 -69 17 -34 18 -47 10 -87 -14 -66 -9 -74 52 -74 57 0 110 -26 121
-59 3 -11 -1 -33 -9 -49 -13 -26 -31 -43 -113 -112 -40 -33 -25 -62 56 -113
47 -30 57 -50 45 -84 -7 -21 -5 -41 9 -81 56 -167 14 -323 -101 -378 -20 -10
-66 -20 -102 -23 -62 -6 -65 -7 -62 -31 6 -42 59 -132 117 -196 47 -53 60 -62
88 -62 69 0 125 -49 168 -147 26 -58 29 -137 8 -180 -8 -18 -30 -38 -57 -50
-47 -22 -56 -50 -19 -64 12 -5 69 -14 127 -20 186 -19 323 -69 413 -152 44
-40 49 -49 57 -106 5 -34 12 -67 15 -74 11 -17 59 -3 162 47 64 32 100 44 116
40 13 -3 56 -24 95 -47 86 -49 152 -62 183 -33 11 10 28 37 38 59 23 52 72 91
130 104 80 18 187 -37 247 -127 25 -36 41 -52 51 -48 8 4 35 -3 60 -14 76 -33
88 -29 102 38 26 115 88 206 180 260 24 14 85 38 135 53 l91 27 -2 38 c-8 146
-6 190 9 219 30 57 64 82 118 87 67 7 114 43 129 100 13 51 23 64 76 103 22
16 65 51 95 78 30 27 83 64 118 84 71 40 77 57 42 135 -11 25 -22 70 -26 102
-4 31 -10 58 -14 61 -3 2 -17 -32 -30 -76 -27 -93 -67 -155 -115 -175 -19 -8
-63 -14 -97 -14 -56 0 -68 4 -102 32 -45 36 -66 81 -66 137 0 25 -5 41 -14 44
-31 12 -32 127 -2 127 9 0 12 7 9 18 -5 20 32 72 51 72 8 0 16 16 19 39 2 21
12 52 20 67 9 16 21 39 28 51 18 34 4 71 -28 75 -19 2 -32 12 -41 31 -16 34
-8 46 41 63 47 16 45 42 -5 104 -69 84 -78 102 -78 150 0 85 65 160 149 174
61 10 95 68 46 80 -13 3 -29 15 -35 25 -8 16 -4 25 22 52 34 33 100 68 131 69
12 0 17 8 17 28 0 15 7 40 15 56 16 30 21 96 7 96 -5 0 -35 -24 -67 -53 l-58
-53 -48 10 c-27 5 -52 6 -56 2 -5 -4 -7 -33 -6 -63 2 -40 -1 -59 -12 -67 -8
-6 -18 -29 -23 -51 -8 -39 -9 -40 -60 -49 -51 -9 -54 -8 -86 23 -31 30 -35 31
-87 25 -30 -3 -71 -2 -91 4 l-36 10 -6 -38 c-4 -27 -15 -45 -35 -59 -54 -39
-87 -25 -131 56 -24 45 -30 65 -25 92 7 37 -15 71 -45 71 -20 0 -30 -19 -30
-58 0 -22 -9 -32 -53 -56 l-53 -28 -35 21 c-23 14 -51 21 -86 21 -80 0 -113
48 -113 165 0 63 2 67 40 109 72 78 136 93 231 56 l51 -20 33 20 c35 22 97 26
141 10 21 -9 31 -7 46 7 13 12 41 19 87 21 l68 4 31 64 c17 35 55 89 83 120
70 77 91 128 97 236 3 48 2 88 -2 88 -3 0 -16 -12 -28 -27z m-969 -1003 c366
-75 645 -313 749 -640 44 -139 57 -220 57 -370 -1 -159 -14 -227 -68 -355 -94
-224 -321 -438 -562 -530 -161 -61 -204 -69 -380 -69 -147 0 -167 2 -249 27
-393 122 -664 424 -721 805 -32 209 -6 406 76 580 93 199 257 365 469 472 208
105 393 129 629 80z"/>
<path d="M3268 1829 c-10 -5 -28 -32 -42 -60 -19 -41 -22 -57 -15 -84 12 -43
37 -65 50 -44 5 8 9 23 9 33 0 11 7 49 16 84 17 66 11 88 -18 71z"/>
</g>
</svg>
